<?xml version="1.0" standalone="no"?>
<!DOCTYPE svg PUBLIC "-//W3C//DTD SVG 20010904//EN"
 "http://www.w3.org/TR/2001/REC-SVG-20010904/DTD/svg10.dtd">
<svg version="1.0" xmlns="http://www.w3.org/2000/svg"
 width="700.000000pt" height="700.000000pt" viewBox="0 0 700.000000 700.000000"
 preserveAspectRatio="xMidYMid meet">
<metadata>
Created by potrace 1.14, written by Peter Selinger 2001-2017
</metadata>
<g transform="translate(0.000000,700.000000) scale(0.100000,-0.100000)"
fill="#000000" stroke="none">
<path d="M490 6958 c-190 -119 -347 -278 -451 -456 l-39 -67 0 -2935 0 -2935
39 -67 c113 -194 313 -387 498 -482 29 -15 270 -16 2967 -16 l2936 0 67 41
c167 102 302 231 415 394 19 28 38 57 42 65 4 8 13 26 21 40 13 22 15 418 15
2962 l0 2938 -41 67 c-66 108 -109 161 -204 258 -88 88 -225 190 -299 222 -23
10 -622 13 -2965 12 l-2936 0 -65 -41z m5501 -716 c112 -47 206 -141 252 -252
l22 -55 0 -2430 c0 -2329 -1 -2432 -18 -2482 -39 -112 -142 -218 -257 -265
l-55 -23 -2416 -3 c-2671 -2 -2462 -7 -2577 61 -94 56 -165 148 -196 256 -14
49 -16 297 -16 2445 0 2132 2 2398 15 2451 39 147 160 270 305 309 48 13 368
15 2470 13 l2415 -2 56 -23z"/>
<path d="M1583 4342 l2 -346 135 -58 c194 -84 172 -74 572 -246 202 -86 364
-159 360 -163 -4 -3 -47 -23 -97 -44 -49 -20 -108 -46 -130 -55 -22 -10 -221
-95 -441 -190 l-402 -171 1 -345 c0 -189 2 -344 4 -344 6 0 262 116 402 181
57 27 105 49 106 49 2 0 51 23 110 50 59 28 108 50 110 50 2 0 50 22 107 49
134 63 178 83 453 208 127 58 272 125 323 149 51 24 95 44 96 44 2 0 56 25
121 55 64 30 120 55 126 55 12 0 10 -24 13 255 1 132 -2 248 -6 257 -4 9 -18
20 -29 23 -12 4 -73 31 -136 61 -63 30 -116 54 -117 54 -2 0 -46 20 -97 44
-84 39 -196 91 -374 171 -33 15 -89 41 -125 58 -66 30 -136 63 -245 112 -33
14 -87 39 -120 55 -33 15 -87 40 -120 55 -33 15 -172 79 -310 142 -137 64
-260 119 -272 124 l-21 8 1 -347z"/>
<path d="M3472 2475 c-3 -5 -7 -110 -7 -233 l0 -222 1021 0 1021 0 -1 233 -1
232 -1013 0 c-688 1 -1016 -3 -1020 -10z"/>
</g>
</svg>
